<?xml version="1.0" encoding="utf-8"?><svg viewBox="0 0 67 67" xmlns="http://www.w3.org/2000/svg" xmlns:xlink="http://www.w3.org/1999/xlink"><style>:root>svg{display:none}:root>svg:target{display:block}</style><svg viewBox="0 0 16 16" id="WhatsApp" xmlns="http://www.w3.org/2000/svg"><path fill-rule="evenodd" clip-rule="evenodd" d="M.605 15.506l3.028-.794.292.173A7.99 7.99 0 007.997 16H8c4.41 0 7.998-3.588 8-7.997 0-2.137-.83-4.146-2.34-5.658A7.947 7.947 0 008.002 0C3.591 0 .002 3.587 0 7.996c0 1.511.422 2.983 1.223 4.256l.19.303-.808 2.95zm11.915-5.431c.168.081.28.136.33.216.06.1.06.582-.141 1.144-.2.561-1.161 1.074-1.623 1.143-.415.062-.94.088-1.515-.095-.35-.111-.797-.26-1.371-.507-2.255-.973-3.778-3.158-4.066-3.57a2.913 2.913 0 00-.043-.06l-.002-.003c-.127-.17-.98-1.307-.98-2.484 0-1.107.545-1.688.795-1.955l.047-.05c.22-.241.481-.301.641-.301.16 0 .321.001.461.008h.054c.14 0 .315-.001.487.413l.266.644c.207.504.436 1.06.476 1.14.06.121.1.262.02.422l-.034.069c-.06.122-.104.213-.206.332l-.124.148c-.082.1-.165.202-.237.273-.12.12-.246.25-.106.49.14.242.623 1.029 1.338 1.666.769.686 1.437.975 1.775 1.122.066.029.12.052.16.072.24.12.38.1.52-.06.14-.161.601-.703.762-.943.16-.24.32-.2.54-.12.221.08 1.404.661 1.644.782l.132.064z"/></svg><svg viewBox="0 0 24 24" id="arrow" xmlns="http://www.w3.org/2000/svg"><path fill-rule="evenodd" clip-rule="evenodd" d="M2.22 7.22a.75.75 0 011.062 0l8.47 8.47 8.468-8.47a.752.752 0 011.062 1.062l-9 9a.748.748 0 01-1.062 0l-9-9a.75.75 0 010-1.062z"/></svg><svg fill="none" viewBox="0 0 11 20" id="arrow-next" xmlns="http://www.w3.org/2000/svg"><path fill-rule="evenodd" clip-rule="evenodd" d="M.22 19.78a.75.75 0 010-1.062l8.47-8.47L.22 1.78A.751.751 0 011.282.718l9 9a.75.75 0 010 1.062l-9 9a.75.75 0 01-1.062 0z" fill="#747F85"/></svg><svg fill="none" viewBox="0 0 11 20" id="arrow-prev" xmlns="http://www.w3.org/2000/svg"><path fill-rule="evenodd" clip-rule="evenodd" d="M10.78.22a.75.75 0 010 1.062l-8.47 8.47 8.47 8.468a.752.752 0 01-1.062 1.062l-9-9a.75.75 0 010-1.062l9-9a.75.75 0 011.062 0z" fill="#747F85"/></svg><svg fill="none" viewBox="0 0 12 12" id="calendar" xmlns="http://www.w3.org/2000/svg"><g opacity=".7" fill="#fff"><path d="M10.5 0h-9A1.5 1.5 0 000 1.5v9A1.5 1.5 0 001.5 12h9a1.5 1.5 0 001.5-1.5v-9A1.5 1.5 0 0010.5 0zM.75 2.893c0-.355.336-.643.75-.643h9c.414 0 .75.288.75.643v7.714c0 .355-.336.643-.75.643h-9c-.414 0-.75-.288-.75-.643V2.893z"/><path d="M4.875 5.25a.75.75 0 100-1.5.75.75 0 000 1.5zm2.25 0a.75.75 0 100-1.5.75.75 0 000 1.5zm2.25 0a.75.75 0 100-1.5.75.75 0 000 1.5zM2.625 7.5a.75.75 0 100-1.5.75.75 0 000 1.5zm2.25 0a.75.75 0 100-1.5.75.75 0 000 1.5zm2.25 0a.75.75 0 100-1.5.75.75 0 000 1.5zm2.25 0a.75.75 0 100-1.5.75.75 0 000 1.5zm-6.75 2.25a.75.75 0 100-1.5.75.75 0 000 1.5zm2.25 0a.75.75 0 100-1.5.75.75 0 000 1.5zm2.25 0a.75.75 0 100-1.5.75.75 0 000 1.5z"/></g></svg><svg viewBox="0 0 24 23" id="heart" xmlns="http://www.w3.org/2000/svg"><path fill-rule="evenodd" clip-rule="evenodd" d="M12 1.971c6.657-6.843 23.301 5.132 0 20.53C-11.3 7.103 5.343-4.873 12 1.97z"/></svg><svg fill="none" viewBox="0 0 24 24" id="link" xmlns="http://www.w3.org/2000/svg"><path fill-rule="evenodd" clip-rule="evenodd" d="M9.663 19.856a.714.714 0 00.715.715h9.48A2.143 2.143 0 0022 18.428V4.143A2.143 2.143 0 0019.857 2H5.572A2.143 2.143 0 003.43 4.143v9.48a.714.714 0 101.429 0v-9.48a.714.714 0 01.714-.714h14.285a.714.714 0 01.715.714v14.285a.714.714 0 01-.715.714h-9.48a.714.714 0 00-.714.714z" fill="#F03"/><path fill-rule="evenodd" clip-rule="evenodd" d="M16.286 8.428a.714.714 0 00-.714-.714H8.429a.714.714 0 100 1.429h5.418L2.21 20.779a.715.715 0 101.012 1.012l11.636-11.639v5.419a.714.714 0 101.429 0V8.428z" fill="#F03"/></svg><svg fill="none" viewBox="0 0 17 17" id="search" xmlns="http://www.w3.org/2000/svg"><path d="M12.031 11.293a6.478 6.478 0 10-1.392 1.393c.029.04.06.078.097.114l3.836 3.837a.997.997 0 101.41-1.409l-3.836-3.837a1.014 1.014 0 00-.115-.1v.002zm.257-3.831a5.482 5.482 0 11-10.963 0 5.482 5.482 0 0110.963 0z" fill="#060A1A"/></svg><svg fill="none" viewBox="0 0 21 19" id="star" xmlns="http://www.w3.org/2000/svg"><path d="M9.592.969a1 1 0 011.816 0l2.102 4.557a1 1 0 00.79.574l4.984.591a1 1 0 01.561 1.727l-3.684 3.408a1 1 0 00-.302.929l.978 4.922a1 1 0 01-1.47 1.068l-4.379-2.452a1 1 0 00-.976 0l-4.38 2.452a1 1 0 01-1.469-1.068l.978-4.922a1 1 0 00-.302-.93L1.155 8.419a1 1 0 01.56-1.727l4.985-.59a1 1 0 00.79-.575L9.592.969z" fill="#FAAF29"/></svg><svg fill="none" viewBox="0 0 21 19" id="star-last" xmlns="http://www.w3.org/2000/svg"><path d="M9.592.969a1 1 0 011.816 0l2.102 4.557a1 1 0 00.79.574l4.984.591a1 1 0 01.561 1.727l-3.684 3.408a1 1 0 00-.302.929l.978 4.922a1 1 0 01-1.47 1.068l-4.379-2.452a1 1 0 00-.976 0l-4.38 2.452a1 1 0 01-1.469-1.068l.978-4.922a1 1 0 00-.302-.93L1.155 8.419a1 1 0 01.56-1.727l4.985-.59a1 1 0 00.79-.575L9.592.969z" fill="#FAAF29"/><path d="M9.592.969a1 1 0 011.816 0l2.102 4.557a1 1 0 00.79.574l4.984.591a1 1 0 01.561 1.727l-3.684 3.408a1 1 0 00-.302.929l.978 4.922a1 1 0 01-1.47 1.068l-4.379-2.452a1 1 0 00-.976 0l-4.38 2.452a1 1 0 01-1.469-1.068l.978-4.922a1 1 0 00-.302-.93L1.155 8.419a1 1 0 01.56-1.727l4.985-.59a1 1 0 00.79-.575L9.592.969z" fill="url(#jpaint0_linear_435_1994)"/><defs><linearGradient id="jpaint0_linear_435_1994" x1="14" y1="11" x2="14.5" y2="11" gradientUnits="userSpaceOnUse"><stop stop-color="#fff" stop-opacity="0"/><stop offset="1" stop-color="#fff"/></linearGradient></defs></svg><svg fill="none" viewBox="0 0 24 24" id="tel" xmlns="http://www.w3.org/2000/svg"><path fill-rule="evenodd" clip-rule="evenodd" d="M2.828.765a2.618 2.618 0 013.916.245l2.692 3.459c.494.634.668 1.461.473 2.241l-.82 3.285a1.017 1.017 0 00.266.965l3.686 3.685a1.017 1.017 0 00.966.267l3.284-.82a2.62 2.62 0 012.24.472l3.46 2.692a2.617 2.617 0 01.244 3.916l-1.55 1.551c-1.11 1.11-2.77 1.598-4.316 1.053a27.951 27.951 0 01-10.516-6.63A27.952 27.952 0 01.223 6.632C-.32 5.087.167 3.426 1.277 2.316L2.828.766z" fill="#747F85"/></svg><svg viewBox="0 0 24 24" id="telegram" xmlns="http://www.w3.org/2000/svg"><path d="M3.257 11.512c1.739-.952 3.68-1.747 5.494-2.547 3.12-1.308 6.254-2.595 9.418-3.792.616-.204 1.723-.403 1.831.504-.06 1.284-.304 2.561-.471 3.838-.426 2.807-.918 5.606-1.397 8.404-.165.933-1.34 1.415-2.091.818-1.806-1.212-3.626-2.414-5.408-3.655-.584-.59-.043-1.437.479-1.858 1.487-1.458 3.065-2.696 4.474-4.23.38-.912-.743-.143-1.114.093-2.036 1.395-4.022 2.876-6.17 4.102-1.096.6-2.374.087-3.47-.248-.983-.404-2.423-.812-1.575-1.429z"/></svg><svg viewBox="0 0 24 24" id="vk" xmlns="http://www.w3.org/2000/svg"><path fill-rule="evenodd" clip-rule="evenodd" d="M22.482 6.833c.163-.47 0-.812-.722-.812h-2.4c-.606 0-.885.3-1.048.62 0 0-1.235 2.733-2.96 4.505-.559.512-.815.683-1.118.683-.163 0-.373-.17-.373-.64V6.81c0-.555-.186-.811-.699-.811H9.388c-.373 0-.606.256-.606.512 0 .534.862.662.955 2.157v3.246c0 .704-.14.832-.442.832-.816 0-2.796-2.754-3.985-5.893C5.077 6.234 4.844 6 4.24 6H1.815C1.117 6 1 6.299 1 6.62c0 .576.815 3.48 3.798 7.323 1.98 2.626 4.8 4.036 7.34 4.036 1.537 0 1.723-.32 1.723-.854v-1.986c0-.64.14-.747.63-.747.349 0 .978.17 2.4 1.43C18.52 17.317 18.8 18 19.71 18h2.4c.698 0 1.025-.32.838-.94-.21-.619-1.002-1.515-2.027-2.583-.559-.598-1.398-1.26-1.654-1.58-.35-.427-.256-.598 0-.982-.023 0 2.912-3.801 3.215-5.082z"/></svg><svg fill="none" viewBox="0 0 67 67" id="why-1" xmlns="http://www.w3.org/2000/svg"><circle cx="33.5" cy="33.5" r="33.5" fill="#F03"/><path d="M32.305 16.709a1.2 1.2 0 012.056 0l4.745 7.883a1.2 1.2 0 00.757.55l8.964 2.076a1.2 1.2 0 01.635 1.956l-6.031 6.948a1.2 1.2 0 00-.29.89l.796 9.167a1.2 1.2 0 01-1.664 1.209l-8.472-3.59a1.2 1.2 0 00-.936 0l-8.472 3.59a1.2 1.2 0 01-1.663-1.21l.795-9.166a1.2 1.2 0 00-.29-.89l-6.03-6.948a1.2 1.2 0 01.635-1.956l8.963-2.076a1.2 1.2 0 00.758-.55l4.744-7.883z" stroke="#fff" stroke-width="2"/></svg><svg fill="none" viewBox="0 0 67 67" id="why-2" xmlns="http://www.w3.org/2000/svg"><circle cx="33.5" cy="33.5" r="33.5" fill="#F03"/><circle cx="33.857" cy="33.714" r="12.857" stroke="#fff" stroke-width="2"/><path d="M33.857 28v5.446a.5.5 0 00.223.416l4.063 2.71M41 18l5.714 4.286M33.857 18v2.857M41 45.143L42.43 48M26.714 45.143L25.286 48M26.714 18L21 22.286" stroke="#fff" stroke-width="2" stroke-linecap="round"/></svg><svg fill="none" viewBox="0 0 67 67" id="why-3" xmlns="http://www.w3.org/2000/svg"><circle cx="33.5" cy="33.5" r="33.5" fill="#F03"/><circle cx="4.429" cy="4.429" r="4.429" transform="matrix(-1 0 0 1 37.505 29.334)" stroke="#fff" stroke-width="2"/><path d="M39.72 23.336l.5-.866-.5.866zm0 20.851l.5.866-.5-.866zm-13.286 0l-.5.866.5-.866zm0-20.85l-.5-.867.5.866zm2.153-3.101l.986.166-.986-.166zm-9.18 9.917l-.581.815.58-.815zm-.37-.964l-.951-.309.95.31zm3.908 14.592l.288.958-.288-.958zm-.907-.218l-.748.665.748-.665zm7.147 4.443l.263-.965-.263.965zm-.598-.718l.986-.166-.986.166zm8.98 0l.986.166-.986-.166zm-.599.718l-.263-.965.264.965zm7.148-4.443l-.748-.664.748.664zm-.908.218l.288-.958-.288.958zm3.909-14.592l-.951.31.95-.31zm-28.08 9.146l-.951.309.95-.31zm.37-.964l-.581-.815.58.815zm24.708-13.41l-.747.664.747-.665zm-21.17-.218l-.287.957.288-.957zm14.622-3.507l-.986.166.986-.166zm-.598-.718l-.263.965.263-.965zm-.388.884a5.42 5.42 0 002.639 3.8l1-1.732a3.42 3.42 0 01-1.667-2.4l-1.972.332zm2.639 3.8a5.416 5.416 0 004.275.498l-.575-1.915a3.416 3.416 0 01-2.7-.315l-1 1.732zm8.848 4.678a15.744 15.744 0 00-3.205-5.584l-1.495 1.329a13.747 13.747 0 012.798 4.874l1.902-.619zm-2.182 4.882c0-1.152.567-2.171 1.442-2.794l-1.161-1.63a5.423 5.423 0 00-2.28 4.424h2zm1.442 2.794a3.423 3.423 0 01-1.442-2.794h-2c0 1.826.902 3.44 2.28 4.423l1.162-1.629zm-2.465 7.672a15.744 15.744 0 003.205-5.584l-1.902-.619a13.745 13.745 0 01-2.798 4.874l1.495 1.328zm-4.643.825a3.416 3.416 0 012.7-.314l.576-1.916a5.416 5.416 0 00-4.276.498l1 1.732zm-1.667 2.401a3.42 3.42 0 011.667-2.4l-1-1.733a5.42 5.42 0 00-2.64 3.8l1.973.333zm-5.476 2.07c1.436 0 2.83-.193 4.154-.554l-.526-1.93a13.78 13.78 0 01-3.628.484v2zm-4.155-.553a15.78 15.78 0 004.155.553v-2c-1.258 0-2.474-.168-3.629-.483l-.526 1.93zm-2.988-3.918a3.42 3.42 0 011.667 2.402l1.972-.333a5.42 5.42 0 00-2.64-3.8l-1 1.731zm-2.701-.314a3.416 3.416 0 012.7.314l1-1.732a5.417 5.417 0 00-4.275-.498l.575 1.916zm-5.147-6.095a15.747 15.747 0 003.204 5.584l1.495-1.329a13.744 13.744 0 01-2.797-4.874l-1.902.619zm2.181-4.882a3.423 3.423 0 01-1.441 2.794l1.16 1.63a5.423 5.423 0 002.281-4.424h-2zm-1.441-2.794a3.423 3.423 0 011.441 2.794h2c0-1.826-.902-3.44-2.28-4.423l-1.161 1.629zm2.465-7.672a15.745 15.745 0 00-3.205 5.584l1.902.619a13.744 13.744 0 012.798-4.874l-1.495-1.329zm4.643-.826a3.416 3.416 0 01-2.7.315l-.576 1.915c1.381.415 2.927.281 4.276-.498l-1-1.732zm1.667-2.4a3.42 3.42 0 01-1.667 2.4l1 1.732a5.42 5.42 0 002.639-3.8l-1.972-.333zM33.077 18c-1.437 0-2.83.192-4.155.554l.526 1.93A13.78 13.78 0 0133.077 20v-2zm4.155.554A15.781 15.781 0 0033.077 18v2c1.257 0 2.474.168 3.629.483l.526-1.93zm-7.659 1.848c.002-.01.004-.006-.009.01a.23.23 0 01-.116.071l-.526-1.93c-.787.215-1.216.896-1.321 1.516l1.972.333zm-9.587 8.937c-.01-.008-.006-.01.002.009.004.01.01.03.012.059a.256.256 0 01-.012.092l-1.902-.619c-.286.878.17 1.681.74 2.088l1.16-1.63zm2.672 13.484c-.01.003-.008 0 .012.004a.228.228 0 01.115.072l-1.495 1.329c.541.609 1.34.692 1.943.51l-.575-1.915zm6.79 4.218a.23.23 0 01.116.071c.014.016.01.02.01.01l-1.973.333c.105.62.534 1.3 1.321 1.516l.526-1.93zm7.133.08c-.002.011-.005.007.008-.009a.229.229 0 01.117-.071l.525 1.93c.788-.215 1.217-.896 1.322-1.517l-1.972-.332zm6.787-4.222a.23.23 0 01.115-.072c.02-.005.023 0 .013-.004l-.575 1.916c.602.18 1.401.098 1.942-.511l-1.495-1.329zm2.798-13.4a.257.257 0 01-.012-.092.185.185 0 01.012-.06c.008-.018.012-.016 0-.008l1.162 1.629c.57-.407 1.026-1.21.74-2.088l-1.902.619zm-26.178 8.526c.01.031.013.063.012.092a.186.186 0 01-.012.06c-.008.018-.012.016-.002.008l-1.16-1.629c-.57.407-1.026 1.21-.74 2.088l1.902-.619zM43.495 24.7c.01-.003.008.001-.012-.003a.229.229 0 01-.115-.072l1.495-1.329c-.541-.609-1.34-.692-1.943-.511l.575 1.915zm-20.71-.075a.229.229 0 01-.114.072c-.02.004-.023 0-.013.003l.575-1.915c-.603-.181-1.401-.098-1.942.511l1.495 1.329zm23.382 13.56c.01.008.007.01-.001-.008a.186.186 0 01-.012-.06.257.257 0 01.012-.092l1.902.619c.286-.878-.17-1.681-.74-2.088l-1.161 1.63zM38.553 20.07c-.105-.62-.534-1.3-1.321-1.515l-.526 1.93a.23.23 0 01-.117-.072c-.013-.016-.01-.02-.008-.01l1.972-.333z" fill="#fff"/></svg><svg fill="none" viewBox="0 0 67 67" id="why-4" xmlns="http://www.w3.org/2000/svg"><circle cx="33.5" cy="33.5" r="33.5" fill="#F03"/><path d="M35.856 19.173c-.002-.076-.085-.126-.151-.088C30.007 22.4 30.241 31 30.304 32.215a.09.09 0 01-.129.09c-.549-.238-2.564-1.338-2.632-4.671-.001-.077-.084-.127-.15-.089C24.17 29.416 22 32.922 22 36.812 22 42.715 26.962 47.5 33.083 47.5c6.122 0 11.084-4.785 11.084-10.688 0-8.615-8.182-10.436-8.311-17.64z" stroke="#fff" stroke-width="2"/></svg><svg fill="none" viewBox="0 0 67 67" id="why-5" xmlns="http://www.w3.org/2000/svg"><circle cx="33.5" cy="33.5" r="33.5" fill="#F03"/><circle cx="5.447" cy="5.447" r="5.447" transform="matrix(-1 0 0 1 39.788 22)" stroke="#fff" stroke-width="2"/><path d="M24.809 40.975c0-1.171.736-2.216 1.84-2.61v0a22.87 22.87 0 0115.384 0v0a2.772 2.772 0 011.84 2.61v1.792a2.657 2.657 0 01-3.033 2.63l-.534-.076a42.18 42.18 0 00-11.93 0l-.535.076a2.657 2.657 0 01-3.032-2.63v-1.792z" stroke="#fff" stroke-width="2"/><path d="M42.51 33.045a4.28 4.28 0 000-8.56M47.198 42.808l.419.06A2.088 2.088 0 0050 40.801v-1.407c0-.92-.579-1.742-1.446-2.051a17.977 17.977 0 00-2.64-.722M25.49 33.045a4.28 4.28 0 010-8.56M20.802 42.808l-.419.06A2.088 2.088 0 0118 40.801v-1.407c0-.92.579-1.742 1.446-2.051.864-.309 1.747-.55 2.64-.722" stroke="#fff" stroke-width="2" stroke-linecap="round"/></svg><svg fill="none" viewBox="0 0 67 67" id="why-6" xmlns="http://www.w3.org/2000/svg"><circle cx="33.5" cy="33.5" r="33.5" fill="#F03"/><rect x="20" y="25.4" width="27" height="21.6" rx="5" stroke="#fff" stroke-width="1.5"/><path d="M42.95 26.075v0c0-3.136-2.879-5.482-5.95-4.85l-13.008 2.678A5 5 0 0020 28.801v6.049M37.55 36.2a3.375 3.375 0 013.375-3.375H47v6.75h-6.075A3.375 3.375 0 0137.55 36.2v0z" stroke="#fff" stroke-width="1.5"/><path d="M40.925 36.2h.27" stroke="#fff" stroke-width="1.5" stroke-linecap="round" stroke-linejoin="round"/></svg><svg fill="none" viewBox="0 0 67 67" id="why-7" xmlns="http://www.w3.org/2000/svg"><circle cx="33.5" cy="33.5" r="33.5" fill="#F03"/><path d="M19.317 29.988l-.288.958.288-.958zm0 6.823l-.288-.957.288.957zm27.866 0l-.289.958.289-.958zm0-6.823l.288.958-.288-.958zM23 21a5 5 0 00-5 5h2a3 3 0 013-3v-2zm20.5 0H23v2h20.5v-2zm5 5a5 5 0 00-5-5v2a3 3 0 013 3h2zm0 3.582V26h-2v3.582h2zM45.65 33.4c0-1.156.767-2.136 1.822-2.454l-.578-1.915A4.564 4.564 0 0043.65 33.4h2zm1.822 2.454A2.564 2.564 0 0145.65 33.4h-2a4.564 4.564 0 003.244 4.369l.578-1.915zM48.5 40.8v-3.582h-2V40.8h2zm-5 5a5 5 0 005-5h-2a3 3 0 01-3 3v2zm-20.5 0h20.5v-2H23v2zm-5-5a5 5 0 005 5v-2a3 3 0 01-3-3h-2zm0-3.582V40.8h2v-3.582h-2zm1.606.55A4.564 4.564 0 0022.85 33.4h-2a2.564 2.564 0 01-1.822 2.454l.578 1.915zM22.85 33.4a4.564 4.564 0 00-3.244-4.37l-.578 1.916A2.564 2.564 0 0120.85 33.4h2zM18 26v3.582h2V26h-2zm1.606 3.03a.568.568 0 01.394.552h-2c0 .684.477 1.198 1.029 1.364l.577-1.915zM20 37.219a.567.567 0 01-.394.55l-.578-1.914c-.55.166-1.028.68-1.028 1.364h2zm26.894.55a.567.567 0 01-.394-.55h2c0-.685-.477-1.198-1.029-1.364l-.577 1.915zm-.394-8.186c0-.304.207-.495.394-.551l.578 1.915c.55-.166 1.028-.68 1.028-1.364h-2z" fill="#fff"/><path d="M32.851 28.228a.5.5 0 01.798 0l1.62 2.145a.5.5 0 00.236.171l2.54.878a.5.5 0 01.247.76l-1.54 2.203a.5.5 0 00-.09.277l-.05 2.687a.5.5 0 01-.645.47l-2.571-.784a.5.5 0 00-.292 0l-2.571.784a.5.5 0 01-.646-.47l-.05-2.687a.5.5 0 00-.09-.277l-1.539-2.204a.5.5 0 01.247-.759l2.54-.878a.5.5 0 00.236-.17l1.62-2.146z" stroke="#fff" stroke-width="2"/></svg><svg fill="none" viewBox="0 0 67 67" id="why-8" xmlns="http://www.w3.org/2000/svg"><circle cx="33.5" cy="33.5" r="33.5" fill="#F03"/><path d="M41.108 34.485l-.733-.68.733.68zM30.444 23.821l.68.733-.68-.733zm15.728-2.21l.991.13-.991-.13zm-2.853-2.853l.13.992-.13-.992zm-20.02 15.488l.898.44-.898-.44zm7.384 7.385l-.44-.898.44.898zM25.82 30.579a1 1 0 00-1.415 1.414l1.415-1.414zm7.117 9.945a1 1 0 001.414-1.414l-1.414 1.414zm-9.783 2.666a1 1 0 00-1.415-1.414l1.415 1.414zm-5.68 2.852a1 1 0 001.414 1.414l-1.414-1.414zm2.48-6.05a1 1 0 00-1.414-1.415l1.414 1.414zm-3.547.718a1 1 0 001.415 1.414l-1.415-1.414zm9.946 5.68a1 1 0 00-1.415-1.415l1.415 1.414zm-3.547.718a1 1 0 001.414 1.414l-1.414-1.414zm6.679-.146l.99-.141-.99.141zm7.784-5.225l.99-.142-.99.142zm-19.301-6.292l.14-.99-.14.99zm5.225-7.785l-.142.99.142-.99zm4.923 12.68l-3.527-3.527-1.414 1.414 3.527 3.528 1.414-1.414zm12.26-6.535c-2.874 3.099-7.53 5.652-10.133 6.928l.88 1.796c2.623-1.286 7.574-3.974 10.719-7.364l-1.467-1.36zm-16.18.882c1.276-2.603 3.83-7.259 6.928-10.132l-1.36-1.467c-3.39 3.144-6.077 8.095-7.363 10.718l1.796.88zM45.18 21.48c-.459 3.507-1.68 8.955-4.805 12.324l1.467 1.36c3.582-3.863 4.856-9.87 5.321-13.424l-1.983-.26zm-14.056 3.073c3.37-3.125 8.817-4.346 12.324-4.804l-.26-1.984c-3.554.465-9.56 1.74-13.424 5.322l1.36 1.466zm16.04-2.813a3.508 3.508 0 00-3.975-3.975l.26 1.984c1.045-.137 1.868.685 1.731 1.731l1.983.26zM24.588 36.813c-.585-.585-.733-1.432-.392-2.126l-1.796-.88c-.74 1.51-.377 3.27.774 4.42l1.414-1.414zm2.113 4.942c1.151 1.15 2.911 1.514 4.421.774l-.88-1.796c-.694.34-1.542.192-2.127-.392l-1.414 1.414zm-2.297-9.762l8.532 8.531 1.414-1.414-8.531-8.531-1.415 1.414zm-2.666 9.783l-4.265 4.266 1.414 1.414 4.265-4.266-1.414-1.414zm-3.199-3.2l-2.133 2.134 1.415 1.414 2.132-2.133-1.414-1.414zm6.399 6.4l-2.133 2.132 1.414 1.414 2.133-2.133-1.415-1.414zm8.53-19.196a4.016 4.016 0 000 5.68l1.415-1.414a2.016 2.016 0 010-2.852L33.47 25.78zm0 5.68a4.016 4.016 0 005.68 0l-1.414-1.414a2.016 2.016 0 01-2.851 0L33.47 31.46zm5.68 0a4.016 4.016 0 000-5.68l-1.414 1.414a2.016 2.016 0 010 2.852l1.415 1.414zm0-5.68a4.016 4.016 0 00-5.68 0l1.415 1.414a2.016 2.016 0 012.851 0l1.415-1.414zm-3.013 16.53l-4.8 4.798 1.415 1.414 4.799-4.798-1.414-1.415zm-5.661 4.51l-.64-4.478-1.98.283.64 4.478 1.98-.282zm5.378-7.928l.426 2.986 1.98-.283-.426-2.986-1.98.283zm-4.516 8.216a.508.508 0 01-.862-.287l-1.98.282c.292 2.047 2.795 2.88 4.256 1.42l-1.414-1.415zm6.213-3.384a2.508 2.508 0 00.71-2.129l-1.98.283a.508.508 0 01-.144.431l1.414 1.415zM21.206 27.38l-4.799 4.799 1.415 1.414 4.798-4.8-1.414-1.413zm-3.38 9.055l4.479.64.283-1.98-4.48-.64-.282 1.98zm8.494-9.338l-2.986-.427-.283 1.98 2.986.427.283-1.98zm-9.913 5.081c-1.461 1.462-.627 3.965 1.42 4.257l.282-1.98a.508.508 0 01-.288-.862l-1.414-1.415zm6.213-3.384a.508.508 0 01.431-.144l.283-1.98a2.508 2.508 0 00-2.128.71l1.414 1.414z" fill="#fff"/></svg><svg fill="none" viewBox="0 0 41 41" id="yandex" xmlns="http://www.w3.org/2000/svg"><circle cx="20.5" cy="20.5" r="20.5" fill="#F03"/><path d="M23.07 12.112h-1.753c-3.214 0-4.902 1.654-4.902 4.103 0 2.78 1.17 4.07 3.571 5.725l1.98 1.357L16.253 32H12l5.13-7.777c-2.954-2.15-4.61-4.236-4.61-7.777C12.52 12.013 15.54 9 21.288 9H27v22.999h-3.928V12.11l-.002.002z" fill="#fff"/></svg><svg fill="none" viewBox="0 0 24 24" id="youtube" xmlns="http://www.w3.org/2000/svg"><path d="M11.857 6.474h.098c.904.003 5.486.035 6.721.357.373.099.714.29.987.557.273.266.47.597.57.96.11.405.189.942.242 1.496l.01.111.025.278.009.111c.071.976.08 1.89.081 2.09v.08a33.255 33.255 0 01-.09 2.2l-.009.111-.01.111c-.055.611-.136 1.218-.258 1.664-.1.363-.297.694-.57.96a2.224 2.224 0 01-.987.556c-1.276.333-6.126.357-6.798.358h-.157c-.34 0-1.745-.007-3.22-.056l-.187-.006-.095-.005-.188-.007-.189-.008c-1.22-.052-2.383-.136-2.92-.277a2.224 2.224 0 01-.986-.556 2.129 2.129 0 01-.57-.96c-.122-.444-.203-1.052-.258-1.663l-.009-.112-.009-.11A32.54 32.54 0 013 12.538v-.131c.002-.23.011-1.023.07-1.898l.008-.11.003-.056.01-.111.023-.278.011-.11c.053-.555.131-1.093.242-1.498.1-.363.297-.694.57-.96.273-.266.613-.458.987-.556.536-.138 1.699-.224 2.92-.277l.187-.008.189-.006.094-.003.189-.008c1.046-.033 2.094-.05 3.141-.054h.213v-.001zM10.04 9.9v5.144l4.573-2.57L10.04 9.9z" fill="#F03"/></svg></svg>